<svg width="213" height="296" viewBox="0 0 213 296" fill="none" xmlns="http://www.w3.org/2000/svg">
<g clip-path="url(#clip0_191_658)">
<path d="M353.503 62.2242C335.933 40.7653 312.79 24.2467 287.253 13.6385C261.232 2.81812 232.333 -2.03136 204.221 0.817705C189.62 2.30286 174.837 6.09151 162.569 14.3962C150.209 22.7616 141.122 35.2187 134.185 48.282C127.096 61.5877 121.825 76.318 120.28 91.3817C118.856 105.112 120.886 119.812 129.156 131.208C141.97 148.848 172.929 155.122 186.621 135.118C190.408 129.571 192.286 122.964 193.104 116.356C193.982 109.204 193.74 101.717 191.953 94.7157C188.53 81.2584 178.745 71.4382 166.386 65.6795C140.576 53.6164 108.89 57.0716 83.4141 68.1951C56.8777 79.7732 35.5517 100.717 21.4051 125.813C7.83398 149.818 0.563743 177.339 0.715201 204.95C0.866659 231.623 8.04601 258.507 23.0712 280.693C26.7063 286.058 30.8261 291.15 35.2791 295.848C35.9455 296.545 37.0361 295.484 36.3393 294.787C18.3152 275.813 7.47045 251.172 3.71416 225.379C-0.0723964 199.373 3.25979 172.55 12.6202 148.06C22.4653 122.267 39.0354 98.6256 61.5731 82.4102C84.5652 65.831 113.798 57.1019 142.121 60.5875C155.208 62.1939 168.688 66.5584 178.654 75.4997C189.62 85.3502 193.013 99.8077 191.831 114.083C190.771 126.904 185.046 140.18 171.99 144.544C161.387 148.09 149.24 145.423 140.061 139.422C115.645 123.509 119.432 89.1085 128.156 65.4976C133.367 51.4038 140.909 37.5525 151.118 26.429C161.115 15.548 173.928 8.63749 188.196 5.12161C201.889 1.72698 216.278 1.09049 230.303 1.96946C243.874 2.81812 257.324 5.27316 270.32 9.24367C295.947 17.0635 319.939 30.6723 339.326 49.2216C343.991 53.677 348.353 58.4053 352.443 63.4063C353.049 64.0428 354.109 62.982 353.503 62.2242Z" fill="white"/>
</g>
<defs>
<clipPath id="clip0_191_658">
<rect x="290.685" width="296" height="290" rx="2" transform="rotate(90 290.685 0)" fill="white"/>
</clipPath>
</defs>
</svg>
