<svg width="24" height="24" viewBox="0 0 24 24" fill="none" xmlns="http://www.w3.org/2000/svg">
<path d="M4.25889 16.5939C3.1407 14.7089 2.7491 12.4805 3.15762 10.3272C3.56615 8.1739 4.74669 6.2438 6.47758 4.89933C8.20846 3.55486 10.3706 2.8885 12.558 3.02539C14.7455 3.16227 16.8077 4.09298 18.3575 5.64274C19.9072 7.19251 20.838 9.25472 20.9749 11.4421C21.1117 13.6296 20.4454 15.7917 19.1009 17.5226C17.7565 19.2535 15.8264 20.4341 13.6731 20.8426C11.5198 21.2511 9.29143 20.8596 7.40643 19.7414L7.40645 19.7413L4.29802 20.6294C4.16942 20.6662 4.03332 20.6678 3.90385 20.6343C3.77437 20.6007 3.65622 20.5332 3.56165 20.4386C3.46707 20.344 3.3995 20.2259 3.36595 20.0964C3.3324 19.9669 3.33409 19.8308 3.37083 19.7022L4.25896 16.5938L4.25889 16.5939Z" stroke="white" stroke-linecap="round" stroke-linejoin="round"/>
<path d="M13.9378 16.5005L13.935 16.5005C13.0896 16.5017 12.2523 16.3361 11.471 16.0131C10.6897 15.6901 9.97984 15.2162 9.38205 14.6184C8.78426 14.0206 8.3103 13.3107 7.98734 12.5294C7.66437 11.7482 7.49874 10.9108 7.49995 10.0654L7.49995 10.0645C7.50214 9.38337 7.77441 8.73089 8.25705 8.25021C8.73964 7.76957 9.39315 7.49996 10.0743 7.50049M13.9378 16.5005L10.9514 8.00968C10.863 7.85499 10.7353 7.72643 10.5812 7.63701C10.4273 7.54766 10.2524 7.50056 10.0744 7.50049C10.0744 7.50049 10.0743 7.50049 10.0743 7.50049M13.9378 16.5005C14.6176 16.4958 15.2682 16.2229 15.748 15.7411C16.2278 15.2594 16.498 14.6077 16.4999 13.9278V13.9264M13.9378 16.5005L16.4999 13.9264M10.0743 7.50049C10.0742 7.50049 10.0741 7.50049 10.074 7.50049L10.074 8.00049L10.0743 7.50049ZM16.4999 13.9264C16.4999 13.7483 16.4528 13.5733 16.3634 13.4192C16.274 13.2651 16.1454 13.1374 15.9908 13.049L14.4752 12.183C14.3067 12.0867 14.1156 12.037 13.9215 12.0391C13.7275 12.0412 13.5375 12.0949 13.371 12.1947L12.4471 12.7491C11.9445 12.4704 11.5301 12.0559 11.2514 11.5533L11.8057 10.6294C11.9055 10.463 11.9593 10.2729 11.9613 10.0789C11.9634 9.88481 11.9137 9.69369 11.8174 9.52518L10.9514 8.00968L16.4999 13.9264ZM15.931 13.6701C15.9761 13.748 15.9999 13.8364 15.9999 13.9264L15.7427 13.4831C15.8208 13.5278 15.8858 13.5923 15.931 13.6701Z" stroke="white" stroke-linecap="round" stroke-linejoin="round"/>
</svg>
