<svg width="24" height="24" viewBox="0 0 24 24" fill="none" xmlns="http://www.w3.org/2000/svg">
<path d="M8.24994 12.6446L16.6797 20.0628C16.7772 20.1486 16.8954 20.2076 17.0226 20.234C17.1498 20.2605 17.2817 20.2534 17.4053 20.2135C17.529 20.1737 17.6401 20.1024 17.728 20.0066C17.8158 19.9108 17.8772 19.7939 17.9062 19.6673L21.4325 4.27983C21.463 4.14679 21.4566 4.00796 21.414 3.87828C21.3714 3.74861 21.2942 3.63302 21.1908 3.54396C21.0874 3.4549 20.9616 3.39576 20.827 3.3729C20.6925 3.35004 20.5542 3.36433 20.4272 3.41424L3.12499 10.2115C2.9742 10.2708 2.84664 10.3773 2.76141 10.515C2.67618 10.6528 2.63785 10.8145 2.65216 10.9759C2.66648 11.1372 2.73266 11.2896 2.84082 11.4103C2.94897 11.5309 3.09328 11.6133 3.25214 11.645L8.24994 12.6446Z" stroke="white" stroke-linecap="round" stroke-linejoin="round"/>
<path d="M8.24994 12.6446L21.0105 3.42871" stroke="white" stroke-linecap="round" stroke-linejoin="round"/>
<path d="M12.46 16.3498L9.53027 19.2796C9.42538 19.3844 9.29174 19.4559 9.14626 19.4848C9.00077 19.5138 8.84997 19.4989 8.71293 19.4421C8.57588 19.3854 8.45875 19.2892 8.37634 19.1659C8.29393 19.0426 8.24994 18.8976 8.24994 18.7492V12.645" stroke="white" stroke-linecap="round" stroke-linejoin="round"/>
</svg>
